<svg width="799" height="781" viewBox="0 0 799 781" fill="none" xmlns="http://www.w3.org/2000/svg">
<g clip-path="url(#clip0)">
<path d="M799 392.394C799.089 486.499 764.71 577.496 702.144 648.764C639.577 720.033 552.997 766.817 458.217 780.573H350.013C349.843 780.719 343.846 781 343.846 781C342.839 780.865 341.822 780.719 340.815 780.573C333.111 779.46 325.478 778.131 317.915 776.587C288.302 770.566 259.491 761.224 232.049 748.745C231.763 748.62 231.488 748.484 231.201 748.359C215.909 741.388 201.089 733.458 186.833 724.618C186.472 724.399 186.123 724.181 185.773 723.962C185.169 723.588 184.575 723.223 183.982 722.838C183.791 722.724 183.601 722.609 183.41 722.484C170.665 714.421 158.398 705.65 146.671 696.214C146.098 695.766 145.526 695.298 144.954 694.84C142.654 692.966 140.376 691.072 138.119 689.157C138.098 689.146 138.087 689.126 138.066 689.115C126.532 679.297 115.575 668.844 105.248 657.807C105.216 657.765 105.173 657.734 105.142 657.692C59.7742 609.222 27.5814 550.299 11.54 486.371C11.4129 485.913 11.3069 485.466 11.1903 485.008C3.73639 454.681 -0.0200561 423.592 8.05272e-05 392.394C8.05272e-05 175.682 178.864 0 399.5 0C620.136 0 799 175.682 799 392.394Z" fill="#3F3D56"/>
<path opacity="0.8" d="M436.434 450.282L471.372 410.107L506.31 369.932L526.033 347.253C527.125 345.998 525.441 344.04 524.349 345.295L489.411 385.47L454.473 425.645L434.75 448.324C433.658 449.579 435.342 451.536 436.434 450.282V450.282Z" fill="url(#paint0_linear)"/>
<path d="M446.031 350.147H409.896V780.573H446.031V350.147Z" fill="#2F2E41"/>
<path d="M434.416 508.166L434.342 521.052L433.463 677.447L433.357 696.089L433.124 738.097L432.89 780.573H430.559L430.792 738.097L431.015 698.857L431.131 677.062L432.011 521.083L432.085 508.156L434.416 508.166Z" fill="#F9A826"/>
<path d="M452.517 355.871H403.555C402.845 348.337 404.612 340.75 409.165 333.102L410.55 323.811H444.356L445.951 332.985C450.688 339.184 452.523 347.011 452.517 355.871Z" fill="#2F2E41"/>
<path d="M445.403 324.956H410.517C410.164 324.956 409.816 324.877 409.499 324.726C409.182 324.575 408.904 324.355 408.686 324.084C408.467 323.812 408.315 323.495 408.239 323.157C408.164 322.819 408.167 322.468 408.249 322.131L414.125 298.086C414.247 297.586 414.537 297.141 414.948 296.822C415.36 296.504 415.868 296.33 416.392 296.33H439.528C440.052 296.33 440.56 296.504 440.971 296.822C441.383 297.141 441.673 297.586 441.795 298.086L447.67 322.131C447.753 322.468 447.756 322.819 447.681 323.157C447.605 323.495 447.452 323.812 447.234 324.084C447.016 324.355 446.738 324.575 446.421 324.726C446.104 324.877 445.756 324.956 445.403 324.956V324.956Z" fill="#2F2E41"/>
<path d="M427.963 284.304C424.716 284.307 421.604 285.577 419.309 287.833C417.014 290.089 415.725 293.147 415.724 296.336V308.357H440.202V296.336C440.201 293.147 438.912 290.089 436.617 287.833C434.322 285.577 431.21 284.307 427.963 284.304V284.304Z" fill="#2F2E41"/>
<path d="M414.39 647.512L331.432 753.266L342.905 755.867L407.329 674.384H414.39V647.512Z" fill="#2F2E41"/>
<path d="M444.887 647.512L527.846 753.266L516.372 755.867L451.948 674.384H444.887V647.512Z" fill="#2F2E41"/>
<path d="M688.136 255.264V663.688C662.358 690.143 632.951 712.942 600.766 731.425V255.264H688.136Z" fill="#2F2E41"/>
<path d="M729.613 307.279H672.248V363.623H729.613V307.279Z" fill="#2F2E41"/>
<path d="M651.067 119.175H637.829V266.538H651.067V119.175Z" fill="#2F2E41"/>
<g opacity="0.4">
<path opacity="0.4" d="M608.183 255.265H600.766V731.425C603.258 729.995 605.73 728.536 608.183 727.048V255.265Z" fill="#E6E6E6"/>
<path opacity="0.4" d="M645.247 119.175H637.83V255.264H645.247V119.175Z" fill="#E6E6E6"/>
</g>
<path d="M665.629 322.449H617.972V348.454H665.629V322.449Z" fill="#F9A826"/>
<path d="M155.703 323.74C194.442 323.74 225.846 292.895 225.846 254.845C225.846 216.795 194.442 185.949 155.703 185.949C116.964 185.949 85.5596 216.795 85.5596 254.845C85.5596 292.895 116.964 323.74 155.703 323.74Z" fill="#E6E6E6"/>
<path d="M148.803 215.314C153.249 215.314 156.852 211.775 156.852 207.408C156.852 203.042 153.249 199.502 148.803 199.502C144.358 199.502 140.754 203.042 140.754 207.408C140.754 211.775 144.358 215.314 148.803 215.314Z" fill="#CBCBCB"/>
<path d="M162.602 294.375C167.047 294.375 170.651 290.835 170.651 286.469C170.651 282.102 167.047 278.563 162.602 278.563C158.156 278.563 154.553 282.102 154.553 286.469C154.553 290.835 158.156 294.375 162.602 294.375Z" fill="#CBCBCB"/>
<path d="M193.649 248.068C196.824 248.068 199.398 245.54 199.398 242.421C199.398 239.302 196.824 236.774 193.649 236.774C190.474 236.774 187.899 239.302 187.899 242.421C187.899 245.54 190.474 248.068 193.649 248.068Z" fill="#CBCBCB"/>
<path d="M128.105 278.563C138.266 278.563 146.503 270.472 146.503 260.492C146.503 250.512 138.266 242.421 128.105 242.421C117.944 242.421 109.707 250.512 109.707 260.492C109.707 270.472 117.944 278.563 128.105 278.563Z" fill="#CBCBCB"/>
<path d="M267.056 367.195C269.149 367.195 270.846 365.528 270.846 363.472C270.846 361.417 269.149 359.75 267.056 359.75C264.962 359.75 263.266 361.417 263.266 363.472C263.266 365.528 264.962 367.195 267.056 367.195Z" fill="#F9A826"/>
<path d="M299.902 417.471L298.011 419.317L296.132 417.459L294.871 418.689L296.75 420.547L294.858 422.392L296.111 423.631L298.002 421.785L299.881 423.643L301.142 422.413L299.263 420.555L301.155 418.71L299.902 417.471Z" fill="#E6E6E6"/>
<path d="M315.063 309.518L313.171 311.363L311.292 309.505L310.031 310.736L311.91 312.594L310.019 314.439L311.271 315.678L313.163 313.832L315.041 315.69L316.302 314.46L314.424 312.602L316.315 310.757L315.063 309.518Z" fill="#E6E6E6"/>
<path d="M362.707 104.662C358.614 107.34 354.426 100.966 358.597 98.4063C362.689 95.7282 366.878 102.103 362.707 104.662Z" fill="#E6E6E6"/>
<path d="M125.633 381.703L123.029 381.142L123.599 378.583L121.863 378.21L121.292 380.768L118.689 380.208L118.308 381.913L120.912 382.474L120.342 385.031L122.077 385.405L122.649 382.847L125.252 383.408L125.633 381.703Z" fill="#E6E6E6"/>
<path d="M524.073 74.6569L521.469 74.0959L522.04 71.5375L520.304 71.1639L519.733 73.7222L517.129 73.1623L516.749 74.8672L519.352 75.4282L518.782 77.9855L520.518 78.3592L521.089 75.8008L523.693 76.3618L524.073 74.6569Z" fill="#E6E6E6"/>
<path d="M727.532 240.149L724.928 239.588L725.499 237.03L723.763 236.656L723.192 239.215L720.588 238.655L720.208 240.36L722.811 240.921L722.241 243.478L723.977 243.852L724.548 241.293L727.152 241.854L727.532 240.149Z" fill="#E6E6E6"/>
<path d="M235.737 115.018L233.133 114.457L233.703 111.9L231.967 111.526L231.396 114.084L228.792 113.524L228.411 115.229L231.016 115.79L230.446 118.348L232.181 118.721L232.753 116.163L235.356 116.723L235.737 115.018Z" fill="#E6E6E6"/>
<path d="M482.515 199.973C484.608 199.973 486.305 198.306 486.305 196.25C486.305 194.194 484.608 192.528 482.515 192.528C480.422 192.528 478.725 194.194 478.725 196.25C478.725 198.306 480.422 199.973 482.515 199.973Z" fill="#F9A826"/>
<path d="M454.134 252.639L451.53 252.078L452.101 249.52L450.365 249.146L449.794 251.705L447.19 251.145L446.81 252.85L449.413 253.411L448.843 255.968L450.579 256.342L451.15 253.783L453.754 254.344L454.134 252.639Z" fill="#E6E6E6"/>
<path d="M554.701 206.612L552.097 206.051L552.668 203.493L550.932 203.12L550.361 205.677L547.756 205.117L547.375 206.822L549.98 207.383L549.41 209.941L551.146 210.314L551.717 207.757L554.321 208.317L554.701 206.612Z" fill="#E6E6E6"/>
<path opacity="0.8" d="M379.211 227.543L414.149 187.368L449.087 147.194L468.811 124.515C469.902 123.26 468.218 121.302 467.127 122.557L432.188 162.732L397.25 202.906L377.527 225.585C376.436 226.84 378.12 228.798 379.211 227.543V227.543Z" fill="url(#paint1_linear)"/>
<path d="M414.859 673.387H408.5V779.577H414.859V673.387Z" fill="#E6E6E6"/>
<path d="M429.743 283.731C427.146 284.422 424.852 285.932 423.215 288.029C421.578 290.126 420.688 292.694 420.683 295.337V295.441C420.294 295.555 419.942 295.767 419.662 296.055C419.381 296.343 419.182 296.698 419.083 297.085L413.212 321.139C413.133 321.463 413.128 321.801 413.197 322.127C413.265 322.454 413.406 322.762 413.61 323.029C413.813 323.296 414.073 323.516 414.373 323.673C414.672 323.831 415.003 323.921 415.342 323.939L415.3 324.22L415.141 325.261L412.746 332.546C408.2 340.186 407.808 347.337 408.518 354.872H414.855V646.837L332.157 752.273L338.24 753.647L337.276 754.875L325.799 752.273L408.497 646.837V354.872L403.209 354.404C402.499 346.868 403.961 340.186 408.507 332.546L408.783 325.261L408.942 324.22L408.984 323.939C408.645 323.921 408.314 323.831 408.015 323.673C407.715 323.516 407.455 323.296 407.251 323.029C407.048 322.762 406.907 322.454 406.839 322.127C406.77 321.801 406.775 321.463 406.854 321.139L412.725 297.085C412.824 296.698 413.023 296.343 413.304 296.055C413.584 295.767 413.936 295.555 414.325 295.441V295.337C414.326 292.148 415.616 289.089 417.91 286.833C420.205 284.577 423.318 283.308 426.564 283.305C427.639 283.308 428.708 283.451 429.743 283.731V283.731Z" fill="#E6E6E6"/>
<path d="M456.91 673.387H450.994V673.946L514.978 754.87L520.369 753.648L456.91 673.387Z" fill="#E6E6E6"/>
<path d="M545.609 738.097V757.717C517.46 768.581 488.139 776.25 458.217 780.573H327.876C324.538 779.98 321.211 779.345 317.915 778.669V738.097H545.609Z" fill="#2F2E41"/>
<path d="M433.463 677.447C432.721 677.323 431.937 677.198 431.132 677.062C426.395 676.313 420.683 675.459 414.134 674.575C413.689 674.512 413.234 674.45 412.767 674.387C407.363 673.669 401.418 672.941 395.007 672.222C359.858 668.34 310.762 665.228 260.661 669.506C261.901 664.614 263.045 659.722 264.126 654.851L216.143 662.147L267.92 636.282C272.797 609.711 276.151 582.892 277.965 555.951L252.046 559.885L278.548 546.646C280.445 513.308 279.555 491.117 279.555 491.117C279.555 491.117 192.862 535.384 123.538 603.038C120.995 594.233 118.208 585.542 115.241 577.007L78.0034 607.608L108.702 559.188C98.9011 533.962 87.6576 509.3 75.0256 485.32L54.9129 501.848L70.6386 477.056C54.7222 447.548 42.2815 429 42.2815 429C42.2815 429 28.0924 451.836 11.1904 487.089C27.1306 551.586 59.4958 611.047 105.248 659.889C115.59 670.943 126.565 681.41 138.119 691.238C140.376 693.154 142.654 695.048 144.954 696.921C157.202 706.879 170.043 716.11 183.41 724.566C184.194 725.066 184.978 725.555 185.773 726.044C226.231 751.265 270.999 769.094 317.915 778.669C321.211 779.345 324.538 779.98 327.876 780.573C328.692 780.719 329.508 780.865 330.324 781H343.846C343.846 781 349.844 780.719 350.013 780.573C366.809 766.137 382.037 751.544 395.166 738.097C398.154 735.047 401.026 732.049 403.792 729.135L381.136 716.156L410.214 722.276C411.549 720.829 412.863 719.403 414.134 718.009C420.662 710.848 426.321 704.363 431.015 698.857C431.821 697.9 432.605 696.984 433.357 696.089C441.909 685.951 446.614 679.768 446.614 679.768C446.614 679.768 441.887 678.821 433.463 677.447Z" fill="#2F2E41"/>
<path d="M408.497 354.872H402.16C401.45 347.337 403.22 339.749 407.766 332.109L408.783 325.261L408.942 324.22H415.3L415.141 325.261L414.124 332.109C409.578 339.749 407.808 347.337 408.518 354.872H414.855" fill="#F9A826"/>
<path d="M414.855 444.956H408.497V520.937H414.855V444.956Z" fill="#F9A826"/>
<path d="M642.697 130.625C649.135 130.625 654.354 125.499 654.354 119.175C654.354 112.852 649.135 107.726 642.697 107.726C636.259 107.726 631.041 112.852 631.041 119.175C631.041 125.499 636.259 130.625 642.697 130.625Z" fill="#F9A826"/>
</g>
<defs>
<linearGradient id="paint0_linear" x1="434.396" y1="397.788" x2="526.387" y2="397.788" gradientUnits="userSpaceOnUse">
<stop stop-color="white"/>
<stop offset="1" stop-color="white" stop-opacity="0.3"/>
</linearGradient>
<linearGradient id="paint1_linear" x1="53633.5" y1="25830.3" x2="61619.2" y2="25830.3" gradientUnits="userSpaceOnUse">
<stop stop-color="white"/>
<stop offset="1" stop-color="white" stop-opacity="0.3"/>
</linearGradient>
<clipPath id="clip0">
<rect width="799" height="781" fill="white"/>
</clipPath>
</defs>
</svg>
